<svg width="54" height="54" viewBox="0 0 54 54" fill="none" xmlns="http://www.w3.org/2000/svg">
<g id="Frame" clip-path="url(#clip0_13_95)">
<g id="Group">
<path id="Vector" d="M26.045 5.12931C28.7914 5.12931 31.3609 5.61383 33.5349 6.52042C33.4368 2.96292 30.1228 0.105347 26.045 0.105347C21.9676 0.105347 18.6531 2.96292 18.5551 6.52032C20.7292 5.61383 23.2987 5.12931 26.045 5.12931Z" fill="#9B5729"/>
<path id="Vector_2" d="M22.1291 5.47686C22.6701 2.91574 24.9018 0.876268 27.7709 0.282328C27.2052 0.164991 26.6261 0.105605 26.045 0.105347C21.9676 0.105347 18.6531 2.96292 18.5551 6.52032C19.6547 6.06159 20.8552 5.71125 22.1291 5.47686Z" fill="#7F441C"/>
<path id="Vector_3" d="M38.9852 36.5885C38.4477 36.3635 37.8835 36.1921 37.303 36.0774L38.4356 37.0712L38.9852 36.5885ZM40.2727 41.2705L34.6247 36.3148L28.3193 44.8362C28.1082 45.1212 27.8307 45.3632 27.5052 45.5462C27.1798 45.7291 26.8139 45.8488 26.4319 45.8971H25.6577C25.2759 45.8487 24.9101 45.729 24.5847 45.5461C24.2594 45.3631 23.9819 45.1211 23.7709 44.8362L17.1605 35.903H16.5562C12.1318 35.903 8.53223 39.0612 8.53223 42.9435V45.4984C8.53224 45.5643 8.54696 45.6295 8.57554 45.6903C8.60413 45.7512 8.64602 45.8064 8.69882 45.853C8.75162 45.8995 8.8143 45.9364 8.88327 45.9616C8.95225 45.9868 9.02617 45.9997 9.10081 45.9997H42.9893C43.3032 45.9997 43.5578 45.7754 43.5578 45.4984V42.9435C43.5578 42.8134 43.5533 42.6848 43.5452 42.5564C42.3083 42.4954 41.1551 42.0447 40.2727 41.2705Z" fill="#FF6666"/>
<path id="Vector_4" d="M17.371 36.2904L17.0847 35.903H16.5562C12.1318 35.903 8.53223 39.0612 8.53223 42.9435V45.4987C8.53228 45.6317 8.59221 45.7592 8.69884 45.8532C8.80547 45.9472 8.95006 46 9.10081 46H12.5352C12.3844 46 12.2399 45.9473 12.1332 45.8533C12.0266 45.7593 11.9667 45.6317 11.9666 45.4988V42.9435C11.9666 39.866 14.2292 37.2453 17.371 36.2904Z" fill="#FE3745"/>
<path id="Vector_5" d="M34.1554 35.9028H31.6838L26.045 43.5236L20.4058 35.9028H17.0847L23.7709 44.9386C23.9819 45.2235 24.2593 45.4656 24.5847 45.6485C24.91 45.8315 25.2758 45.9512 25.6577 45.9996H26.4318C26.8138 45.9512 27.1797 45.8316 27.5052 45.6486C27.8306 45.4656 28.1081 45.2236 28.3192 44.9386L34.6704 36.3551L34.1554 35.9028Z" fill="#DEF9FF"/>
<path id="Vector_6" d="M29.2903 35.2261V33.1666C28.6833 33.26 28.0684 33.3071 27.4524 33.3072H24.6385C24.0214 33.3072 23.4059 33.2593 22.7998 33.1655V35.226C22.7998 35.5994 22.4538 35.9029 22.0285 35.9029H20.3291L26.0446 43.6275L31.7605 35.9029H30.0618C29.6362 35.9029 29.2902 35.5994 29.2902 35.226L29.2903 35.2261Z" fill="#F8D5AB"/>
<path id="Vector_7" d="M22.555 35.7194C22.4124 35.8374 22.2241 35.9031 22.0285 35.9029H20.3291L26.045 43.6276L27.2258 42.0319L22.555 35.7194Z" fill="#EAC092"/>
<path id="Vector_8" d="M12.2006 19.2803H14.0731V17.0264C14.0731 16.753 14.3269 16.5309 14.6383 16.5309H24.168C25.9432 16.5309 27.6353 15.7051 28.5825 14.3755C28.6333 14.3038 28.7041 14.2448 28.788 14.2041C28.8719 14.1633 28.9662 14.1421 29.0621 14.1425C29.2582 14.1425 29.4373 14.2297 29.5408 14.3755C30.4887 15.7052 32.1803 16.5309 33.9557 16.5309H37.4518C37.7632 16.5309 38.0166 16.753 38.0166 17.0264V19.2803H39.8899C40.0942 19.2803 40.2912 19.3068 40.4786 19.3533V15.9607C40.4786 9.04367 34.0166 5.03625 26.045 5.03625C18.0735 5.03625 11.6115 9.04376 11.6115 15.9607V19.3537C11.8031 19.3053 12.0013 19.2806 12.2006 19.2803Z" fill="#B57A4E"/>
<path id="Vector_9" d="M12.2006 19.2802H14.0731V17.0263C14.0731 16.753 14.3269 16.5308 14.6383 16.5308H15.0483V15.9606C15.0483 9.54808 20.6018 5.63708 27.7634 5.10065C27.1919 5.05763 26.6185 5.03614 26.045 5.03626C18.0734 5.03626 11.6115 9.04365 11.6115 15.9606V19.3532C11.7989 19.3067 11.9962 19.2802 12.2006 19.2802Z" fill="#9B5729"/>
<path id="Vector_10" d="M38.017 23.0681C39.4417 23.2015 40.6813 23.8863 41.4517 24.8742C41.869 24.5214 42.129 24.0288 42.129 23.4828V21.1308C42.129 20.0575 41.1266 19.1873 39.8899 19.1873H38.017V23.0681Z" fill="#F8D5AB"/>
<path id="Vector_11" d="M11.4038 24.7481C12.0544 24.6039 12.7123 24.5308 13.36 24.5308C13.6055 24.5308 13.8486 24.542 14.0883 24.5628C14.0783 24.3995 14.0732 24.2359 14.0731 24.0724V19.1873H12.2006C10.9635 19.1873 9.96155 20.0575 9.96155 21.1308V23.4828C9.96155 24.1826 10.3887 24.7943 11.0277 25.1363C11.0367 25.0451 11.0778 24.9586 11.1453 24.889C11.2127 24.8194 11.3031 24.7702 11.4038 24.7481Z" fill="#FFE2B8"/>
<path id="Vector_12" d="M33.2684 31.1093C33.0718 30.9367 32.9631 30.7069 32.9631 30.463C32.9628 30.3026 33.0108 30.1449 33.1021 30.0061C33.1933 29.8673 33.3246 29.7523 33.4826 29.6728L33.5794 29.6234L33.5176 29.5409C33.0023 28.8579 32.7278 28.0555 32.7287 27.235C32.7287 24.924 34.8718 23.0438 37.506 23.0438C37.7149 23.0438 37.9201 23.0568 38.122 23.0797V17.0264C38.122 16.7014 37.822 16.4378 37.4517 16.4378H33.9555C32.2166 16.4378 30.5587 15.6288 29.6301 14.3261C29.5696 14.2414 29.4858 14.1716 29.3865 14.1232C29.2871 14.0749 29.1755 14.0497 29.062 14.0498C28.9485 14.0496 28.8367 14.0749 28.7373 14.1232C28.6379 14.1716 28.554 14.2414 28.4935 14.3262C27.5648 15.6289 25.907 16.4378 24.1679 16.4378H14.6383C14.2679 16.4378 13.9676 16.7014 13.9676 17.0264V24.0723C13.9676 24.2342 13.9725 24.3952 13.982 24.5547C15.588 24.6729 17.0448 25.2467 18.1344 26.2031C19.8124 27.6752 20.4321 29.8826 19.7918 32.107C19.7684 32.1873 19.7195 32.2601 19.6509 32.3168C21.1407 33.0081 22.8382 33.4006 24.6385 33.4006H27.4524C29.825 33.4006 32.0192 32.7199 33.7932 31.5699L33.2684 31.1093Z" fill="#FFE2B8"/>
<path id="Vector_13" d="M16.3069 25.0864C16.2647 24.7496 16.2435 24.4111 16.2435 24.0723V17.0259C16.2435 16.701 16.5437 16.4379 16.9142 16.4379H14.6383C14.2679 16.4379 13.9676 16.701 13.9676 17.0259V24.0723C13.9676 24.2341 13.9725 24.3947 13.982 24.5543C14.806 24.6149 15.5908 24.7956 16.3069 25.0864ZM19.7918 32.107C19.7683 32.1872 19.7194 32.2599 19.6509 32.3167C21.1407 33.0081 22.8382 33.4006 24.6385 33.4006H26.9142C24.2731 33.4006 21.8534 32.557 19.988 31.1623C19.947 31.4808 19.8814 31.7964 19.7918 32.107Z" fill="#FFC987"/>
<g id="Group_2">
<path id="Vector_14" d="M27.0177 25.4555H25.6907C24.9137 25.4555 24.2817 24.9005 24.2817 24.2182V22.2936C24.2817 21.908 24.6356 21.5957 25.0727 21.5957C25.2825 21.5957 25.4837 21.6692 25.632 21.8001C25.7803 21.931 25.8637 22.1085 25.8637 22.2936V24.0597H27.0173C27.4545 24.0597 27.8083 24.372 27.8083 24.7576C27.8084 24.8492 27.788 24.94 27.7483 25.0246C27.7086 25.1093 27.6504 25.1863 27.577 25.2511C27.5035 25.3159 27.4164 25.3673 27.3204 25.4024C27.2244 25.4374 27.1216 25.4556 27.0177 25.4555ZM19.6827 22.1973C18.5675 22.1973 17.4523 21.8251 16.603 21.0799C16.4543 20.9494 16.3704 20.7721 16.3698 20.587C16.3692 20.4019 16.452 20.2241 16.6 20.0929C16.7479 19.9616 16.9489 19.8876 17.1587 19.8871C17.3686 19.8866 17.57 19.9596 17.7188 20.0902C18.8015 21.0403 20.5636 21.0403 21.6466 20.0902C21.7954 19.9597 21.9969 19.8867 22.2066 19.8873C22.4164 19.8878 22.6173 19.9619 22.7652 20.0931C23.073 20.3664 23.0717 20.8084 22.7619 21.0799C21.9133 21.8247 20.798 22.1973 19.6827 22.1973ZM32.4074 22.1973C31.292 22.1973 30.1768 21.8251 29.3281 21.0799C29.0184 20.8084 29.0167 20.3664 29.3248 20.0931C29.633 19.8199 30.134 19.8186 30.4433 20.0902C31.5265 21.0403 33.2886 21.0403 34.3713 20.0902C34.6811 19.8186 35.182 19.8198 35.4898 20.0931C35.798 20.3664 35.7967 20.8084 35.487 21.0799C34.6378 21.8247 33.5227 22.1973 32.4074 22.1973ZM26.024 29.626C24.4733 29.626 22.9254 29.1099 21.748 28.0769C21.4382 27.8051 21.4369 27.3633 21.7451 27.0901C22.0534 26.8168 22.5539 26.8156 22.8636 27.0875C24.6113 28.621 27.466 28.6119 29.2263 27.0671C29.3752 26.9366 29.5767 26.8637 29.7866 26.8642C29.9964 26.8648 30.1974 26.9388 30.3454 27.0701C30.6531 27.3434 30.6519 27.7854 30.3421 28.0569C29.1502 29.1026 27.5855 29.626 26.024 29.626Z" fill="#72563C"/>
</g>
<path id="Vector_15" d="M47.6406 17.69C47.5109 17.69 47.3938 17.6202 47.3461 17.5134C46.7083 16.0965 46.2239 15.6691 44.6186 15.1061C44.5597 15.0853 44.5091 15.0494 44.4735 15.0031C44.4379 14.9567 44.4188 14.902 44.4188 14.846C44.4188 14.79 44.4379 14.7352 44.4735 14.6889C44.5091 14.6425 44.5597 14.6067 44.6186 14.5859C46.2239 14.023 46.7083 13.5955 47.3461 12.1786C47.3694 12.1265 47.41 12.0817 47.4625 12.0502C47.515 12.0187 47.5771 12.0018 47.6406 12.0018C47.7042 12.0018 47.7662 12.0187 47.8188 12.0502C47.8713 12.0817 47.9119 12.1265 47.9352 12.1786C48.573 13.5955 49.0574 14.0229 50.6626 14.5859C50.7216 14.6067 50.7721 14.6425 50.8078 14.6889C50.8434 14.7352 50.8624 14.79 50.8624 14.846C50.8624 14.902 50.8434 14.9567 50.8078 15.0031C50.7721 15.0494 50.7216 15.0853 50.6626 15.1061C49.0574 15.669 48.573 16.0965 47.9352 17.5134C47.9118 17.5654 47.8712 17.6101 47.8187 17.6416C47.7662 17.6731 47.7041 17.69 47.6406 17.69Z" fill="#FFAF10"/>
<path id="Vector_16" d="M45.7463 14.1388C45.7364 14.1356 45.7277 14.1312 45.7183 14.1268C45.4192 14.2854 45.062 14.4307 44.6187 14.5859C44.5598 14.6067 44.5092 14.6426 44.4736 14.6889C44.438 14.7353 44.4189 14.79 44.4189 14.846C44.4189 14.902 44.438 14.9567 44.4736 15.0031C44.5092 15.0495 44.5598 15.0853 44.6187 15.1061C46.2239 15.669 46.7083 16.0965 47.3461 17.5134C47.3696 17.5655 47.4102 17.6101 47.4627 17.6416C47.5152 17.673 47.5772 17.6898 47.6407 17.6898C47.7042 17.6898 47.7662 17.673 47.8187 17.6416C47.8713 17.6101 47.9119 17.5655 47.9353 17.5134C48.1144 17.115 48.2816 16.7948 48.4651 16.528C47.8314 15.1261 47.3445 14.6997 45.7463 14.1388Z" fill="#F39600"/>
<path id="Vector_17" d="M5.92439 17.7192C5.86091 17.7193 5.79887 17.7025 5.74633 17.671C5.6938 17.6396 5.6532 17.5949 5.62982 17.5429C4.99174 16.1257 4.50763 15.6982 2.90209 15.1352C2.78133 15.093 2.70222 14.9898 2.70222 14.8753C2.70222 14.7608 2.78133 14.6576 2.90209 14.6151C4.50753 14.0521 4.99163 13.6246 5.62982 12.2078C5.6532 12.1558 5.6938 12.1111 5.74633 12.0796C5.79887 12.0482 5.86091 12.0314 5.92439 12.0315C6.05412 12.0315 6.17077 12.1013 6.21854 12.2077C6.85631 13.625 7.34073 14.052 8.94596 14.6151C9.06662 14.6577 9.14572 14.7608 9.14572 14.8753C9.14572 14.9897 9.06662 15.093 8.94585 15.1352C7.34084 15.6982 6.85631 16.1257 6.21844 17.5429C6.19511 17.5949 6.1546 17.6395 6.10217 17.6709C6.04973 17.7024 5.98779 17.7192 5.92439 17.7192Z" fill="#FFCB00"/>
<path id="Vector_18" d="M4.02383 14.1687C4.01518 14.1655 4.00696 14.1615 3.99873 14.1578C3.70004 14.3156 3.34377 14.4603 2.90207 14.6151C2.8431 14.6358 2.79254 14.6717 2.75692 14.7181C2.7213 14.7644 2.70226 14.8192 2.70226 14.8752C2.70226 14.9312 2.7213 14.9859 2.75692 15.0323C2.79254 15.0786 2.8431 15.1145 2.90207 15.1352C4.50751 15.6982 4.99161 16.1257 5.6298 17.5428C5.65318 17.5949 5.69378 17.6396 5.74631 17.671C5.79885 17.7024 5.86089 17.7192 5.92437 17.7192C6.0541 17.7192 6.17075 17.6494 6.21852 17.5428C6.39687 17.1471 6.56299 16.8282 6.74502 16.5625C6.1101 15.1565 5.62389 14.7299 4.02383 14.1687ZM10.584 6.26532C10.4785 6.26532 10.3841 6.20856 10.3454 6.12239C9.82797 4.97313 9.43521 4.62633 8.13341 4.16983C8.08565 4.15307 8.04469 4.12405 8.01583 4.08652C7.98697 4.049 7.97153 4.0047 7.97152 3.95935C7.97152 3.86593 8.03585 3.78274 8.13341 3.74812C9.43531 3.29162 9.82797 2.94491 10.3454 1.79593C10.3645 1.7538 10.3974 1.71769 10.4399 1.69224C10.4825 1.6668 10.5327 1.6532 10.5841 1.6532C10.6355 1.6532 10.6858 1.6668 10.7283 1.69224C10.7709 1.71769 10.8038 1.7538 10.8229 1.79593C11.3403 2.94491 11.7331 3.29162 13.0344 3.74812C13.0824 3.76493 13.1235 3.79405 13.1524 3.83171C13.1813 3.86938 13.1968 3.91384 13.1967 3.95935C13.1967 4.05203 13.1324 4.13568 13.0343 4.16983C11.7329 4.62633 11.3403 4.97304 10.8229 6.12202C10.8039 6.1643 10.771 6.20057 10.7284 6.22613C10.6858 6.25169 10.6355 6.26534 10.584 6.26532Z" fill="#FFAF10"/>
<path id="Vector_19" d="M11.4364 5.0807C10.9366 3.97061 10.5506 3.60892 9.35172 3.17419C9.05177 3.38942 8.67071 3.55989 8.13356 3.74813C8.0857 3.765 8.04468 3.79414 8.0158 3.8318C7.98692 3.86945 7.97151 3.91389 7.97156 3.95935C7.97156 4.0524 8.03589 4.13568 8.13345 4.16983C9.43535 4.62671 9.82801 4.97341 10.3454 6.1224C10.3645 6.16452 10.3974 6.20064 10.44 6.22609C10.4825 6.25153 10.5328 6.26513 10.5842 6.26513C10.6356 6.26513 10.6858 6.25153 10.7284 6.22609C10.7709 6.20064 10.8038 6.16452 10.8229 6.1224C11.0265 5.67017 11.211 5.34347 11.4388 5.08433C11.4384 5.08321 11.4371 5.08172 11.4364 5.08061V5.0807Z" fill="#F39600"/>
<path id="Vector_20" d="M9.1033 32.0311L0.299527 40.5775C0.204656 40.6605 0.129349 40.7593 0.0779442 40.8681C0.0265396 40.977 5.45184e-05 41.0937 1.53024e-05 41.2116C-2.39136e-05 41.3295 0.0263835 41.4462 0.0777157 41.5551C0.129048 41.6639 0.20429 41.7627 0.299105 41.8458C0.698303 42.1957 1.34514 42.1957 1.74434 41.8453L11.4846 34.1208L9.1033 32.0311Z" fill="#C7C8CA"/>
<path id="Vector_21" d="M10.0182 32.834L9.1033 32.0311L0.299527 40.5775C0.204656 40.6605 0.129349 40.7593 0.0779442 40.8681C0.0265396 40.977 5.45184e-05 41.0937 1.53024e-05 41.2116C-2.39136e-05 41.3295 0.0263835 41.4462 0.0777157 41.5551C0.129048 41.6639 0.20429 41.7627 0.299105 41.8458C0.698303 42.1957 1.34514 42.1957 1.74434 41.8453L2.18351 41.4968C2.04111 41.3245 1.97337 41.1128 1.99256 40.9003C2.01176 40.6877 2.11661 40.4882 2.28814 40.338L10.0182 32.834Z" fill="#A7A9AC"/>
<path id="Vector_22" d="M18.209 26.137C16.5037 24.6409 13.9503 24.0876 11.3783 24.6576C11.2541 24.6849 11.1429 24.7463 11.0608 24.8329C10.9786 24.9195 10.9296 25.0269 10.921 25.1396L10.5361 30.2867L13.4786 32.8686L19.3453 32.5308C19.473 32.5237 19.5949 32.4811 19.6935 32.4091C19.7921 32.337 19.8623 32.2393 19.894 32.13C20.5437 29.8731 19.9138 27.6327 18.209 26.137Z" fill="#9B5729"/>
<path id="Vector_23" d="M12.9307 27.8497L13.1408 25.0408C13.1504 24.9167 13.2042 24.7985 13.2947 24.7032C13.3851 24.6078 13.5075 24.5402 13.6442 24.51C13.731 24.491 13.8181 24.4729 13.9054 24.4559C13.0855 24.4039 12.2331 24.4686 11.3783 24.658C11.2541 24.6852 11.1429 24.7465 11.0607 24.8331C10.9785 24.9196 10.9296 25.0269 10.921 25.1396L10.5361 30.2868L11.0025 30.6961L12.9307 27.8497Z" fill="#7F441C"/>
<path id="Vector_24" d="M17.0365 29.5526C16.9297 29.3933 16.7555 29.278 16.5524 29.2319C16.3492 29.1859 16.1336 29.2129 15.953 29.307L12.6035 31.0537L14.5901 28.1211C14.6977 27.9623 14.7294 27.7722 14.6782 27.5927C14.627 27.4132 14.497 27.2591 14.317 27.1641C14.1368 27.0692 13.9213 27.0412 13.7178 27.0864C13.5143 27.1316 13.3395 27.2463 13.2318 27.4051L11.0025 30.696L13.0143 32.4607L16.758 30.5085C16.9385 30.4142 17.0692 30.2606 17.1214 30.0814C17.1736 29.9021 17.1431 29.7119 17.0365 29.5525V29.5526Z" fill="#602F0E"/>
<path id="Vector_25" d="M12.6463 34.5952C12.4346 34.7813 12.0877 34.7813 11.876 34.5952L8.5685 31.6932C8.51815 31.6488 8.47821 31.5961 8.45095 31.5381C8.4237 31.4801 8.40967 31.418 8.40967 31.3552C8.40967 31.2924 8.4237 31.2302 8.45095 31.1722C8.47821 31.1142 8.51815 31.0615 8.5685 31.0171L9.65821 30.0612C9.86999 29.8751 10.2165 29.8751 10.4287 30.0612L13.7361 32.9632C13.7865 33.0076 13.8264 33.0603 13.8537 33.1183C13.8809 33.1764 13.895 33.2386 13.895 33.3014C13.895 33.3642 13.8809 33.4264 13.8537 33.4845C13.8264 33.5425 13.7865 33.5952 13.7361 33.6396L12.6463 34.5952Z" fill="#8A8C8E"/>
<path id="Vector_26" d="M9.88486 32.3028L11.1043 31.233C11.237 31.1164 11.417 31.0676 11.5917 31.0818L10.4288 30.0612C10.2166 29.8751 9.87009 29.8751 9.65789 30.0612L8.56861 31.0171C8.51817 31.0614 8.47815 31.1141 8.45084 31.1721C8.42353 31.2301 8.40947 31.2923 8.40947 31.3552C8.40947 31.418 8.42353 31.4802 8.45084 31.5382C8.47815 31.5962 8.51817 31.6489 8.56861 31.6932L9.70862 32.6939C9.70634 32.6215 9.72079 32.5495 9.75111 32.4823C9.78143 32.4151 9.82687 32.354 9.88486 32.3028Z" fill="#6D6E71"/>
<path id="Vector_27" d="M34.0063 29.5486C34.1432 29.5482 34.2789 29.5717 34.4055 29.6177C34.532 29.6637 34.647 29.7314 34.7438 29.8169L36.5985 31.4442C37.1452 31.5349 37.7053 31.5432 38.2551 31.4689L35.557 29.1019C35.4601 29.0174 35.3832 28.9166 35.3309 28.8056C35.2785 28.6946 35.2518 28.5754 35.2522 28.4552C35.252 28.335 35.2788 28.216 35.3311 28.1051C35.3834 27.9942 35.4602 27.8936 35.557 27.8091C35.7543 27.636 36.0159 27.5408 36.2945 27.5408C36.573 27.5408 36.835 27.636 37.0319 27.8091L40.3481 30.7183C40.6609 30.5212 40.9466 30.2925 41.1992 30.0368L39.3218 28.3895C39.2248 28.305 39.1478 28.2043 39.0954 28.0933C39.043 27.9822 39.0162 27.8631 39.0165 27.7428C39.0162 27.6226 39.0431 27.5036 39.0955 27.3926C39.1479 27.2816 39.2248 27.181 39.3217 27.0966C39.4185 27.0112 39.5335 26.9435 39.6601 26.8975C39.7867 26.8514 39.9223 26.8279 40.0592 26.8283C40.1961 26.828 40.3318 26.8515 40.4584 26.8975C40.585 26.9436 40.7001 27.0112 40.797 27.0966L42.2221 28.3473C42.3333 27.9847 42.3895 27.6107 42.3894 27.2351C42.3894 24.8688 40.203 22.9508 37.5065 22.9508C34.8097 22.9508 32.6236 24.8688 32.6236 27.2351C32.6224 28.1057 32.9246 28.9556 33.4892 29.6697C33.6467 29.5902 33.8249 29.5484 34.0063 29.5486Z" fill="#FF99A3"/>
<path id="Vector_28" d="M34.0063 29.5486C34.1432 29.5481 34.2789 29.5716 34.4055 29.6177C34.532 29.6637 34.647 29.7314 34.7438 29.8169L36.5985 31.4441C36.8931 31.4925 37.1963 31.519 37.5066 31.519C37.7608 31.519 38.0092 31.5001 38.2526 31.467L37.9984 31.2439C36.1506 30.6336 34.8361 29.0695 34.8361 27.2347C34.8361 25.2029 36.449 23.5021 38.6127 23.0623C38.2499 22.9883 37.8788 22.9508 37.5065 22.9507C34.8101 22.9507 32.6236 24.8688 32.6236 27.2347C32.6236 28.1393 32.9443 28.9779 33.4892 29.6697C33.6467 29.5902 33.8249 29.5484 34.0063 29.5486Z" fill="#FF788C"/>
<path id="Vector_29" d="M49.4422 45.9995C49.2849 45.9998 49.1339 45.9451 49.0224 45.8472L45.2029 42.4955C44.757 42.6028 44.2968 42.6571 43.8346 42.657C42.4607 42.657 41.1691 42.1877 40.1981 41.3361L32.3826 34.4783C32.1656 34.2878 32.0461 34.0349 32.0461 33.7659C32.0461 33.4969 32.1656 33.2439 32.3826 33.0539C32.4892 32.9598 32.6159 32.8853 32.7552 32.8346C32.8946 32.7838 33.044 32.758 33.1948 32.7584C33.5008 32.7584 33.7896 32.8631 34.0063 33.0532L38.4356 36.9399L39.0997 36.3568L33.1942 31.1754C32.9776 30.9849 32.8581 30.7324 32.8581 30.463C32.8581 30.1936 32.9776 29.941 33.1942 29.7506C33.3009 29.6567 33.4275 29.5822 33.5669 29.5316C33.7063 29.4809 33.8556 29.455 34.0063 29.4555C34.3132 29.4555 34.6016 29.5601 34.8183 29.7506L40.7237 34.9319L41.3879 34.349L35.4829 29.1676C35.376 29.0745 35.2912 28.9636 35.2334 28.8413C35.1757 28.7189 35.1462 28.5877 35.1467 28.4552C35.1467 28.1863 35.2662 27.9332 35.4829 27.7428C35.5895 27.6489 35.7161 27.5745 35.8553 27.5238C35.9946 27.4732 36.1438 27.4473 36.2945 27.4476C36.6014 27.4476 36.8893 27.5527 37.1066 27.7428L43.0119 32.9241L43.6764 32.3411L39.2472 28.4552C39.0304 28.2647 38.911 28.0117 38.911 27.7428C38.911 27.4739 39.0304 27.2208 39.2472 27.0303C39.3538 26.9364 39.4805 26.8619 39.6199 26.8113C39.7592 26.7607 39.9086 26.7348 40.0593 26.7352C40.21 26.7348 40.3593 26.7607 40.4986 26.8113C40.638 26.8619 40.7646 26.9364 40.8713 27.0303L46.5509 32.014V30.2144C46.5509 29.5154 47.199 28.9473 47.9953 28.9469C48.7917 28.9469 49.4393 29.5155 49.4393 30.2144V34.7273C50.1763 35.784 50.384 37.0787 50.0087 38.2792L53.8249 41.6279C53.8803 41.6764 53.9244 41.7341 53.9544 41.7977C53.9844 41.8612 53.9999 41.9294 54 41.9983C54 42.1376 53.9369 42.2709 53.8249 42.3691L49.8608 45.8472C49.8058 45.8956 49.7405 45.934 49.6687 45.9602C49.5969 45.9863 49.5199 45.9997 49.4422 45.9995Z" fill="#FFC987"/>
<path id="Vector_30" d="M45.8521 41.5088C45.4062 41.6157 44.9461 41.6699 44.4839 41.6698C43.1096 41.6698 41.8184 41.2006 40.8473 40.3489L33.0319 33.4916C32.8383 33.3228 32.7204 33.0979 32.6999 32.8584C32.5823 32.9072 32.475 32.9733 32.3827 33.054C32.2757 33.147 32.1908 33.258 32.1331 33.3803C32.0753 33.5026 32.0457 33.6339 32.0461 33.7664C32.0461 34.0353 32.1656 34.2884 32.3827 34.4788L40.1981 41.3362C41.1691 42.1878 42.4607 42.6571 43.8346 42.6571C44.2973 42.6571 44.7575 42.6029 45.2029 42.4961L49.0224 45.8473C49.1339 45.9452 49.2849 46.0001 49.4422 45.9999C49.5993 46 49.75 45.9451 49.8612 45.8473L50.3246 45.4406L45.8521 41.5088Z" fill="#FFAF68"/>
</g>
</g>
<defs>
<clipPath id="clip0_13_95">
<rect width="54" height="54" fill="white"/>
</clipPath>
</defs>
</svg>
