<svg width="54" height="54" viewBox="0 0 54 54" fill="none" xmlns="http://www.w3.org/2000/svg">
<g id="Frame">
<g id="Group">
<path id="Vector" d="M38.4328 23.5439L37.3827 30.9757C39.2521 31.2807 41.3931 29.1279 41.7031 27.2594C42.0841 24.9631 40.7754 23.3503 38.4328 23.5439ZM12.2968 27.2594C12.6069 29.1279 14.7479 31.2807 16.6172 30.9757L15.5672 23.5439C13.2245 23.3503 11.9158 24.9631 12.2968 27.2594Z" fill="#FFA39C"/>
<path id="Vector_2" d="M37.7806 27.8994C37.6745 27.8989 37.5702 27.8718 37.4773 27.8205C37.3844 27.7692 37.306 27.6954 37.2491 27.6058C37.1922 27.5162 37.1587 27.4138 37.1518 27.3079C37.1449 27.2021 37.1647 27.0961 37.2094 26.9999C37.6047 26.1562 38.7813 25.6744 39.6385 25.7579C39.7212 25.766 39.8016 25.7903 39.8749 25.8294C39.9482 25.8685 40.0131 25.9216 40.0659 25.9858C40.1187 26.05 40.1583 26.124 40.1825 26.2035C40.2068 26.283 40.2151 26.3665 40.207 26.4492C40.1989 26.5319 40.1747 26.6122 40.1356 26.6855C40.0965 26.7589 40.0433 26.8238 39.9791 26.8766C39.9149 26.9294 39.841 26.969 39.7615 26.9932C39.682 27.0174 39.5985 27.0257 39.5158 27.0176C39.2951 27.0063 39.0749 27.0474 38.8733 27.1376C38.6716 27.2278 38.4942 27.3645 38.3556 27.5365C38.3042 27.6455 38.2228 27.7375 38.121 27.8017C38.0191 27.866 37.901 27.8999 37.7806 27.8994ZM16.2194 27.8994C16.0991 27.8994 15.9812 27.8651 15.8797 27.8006C15.7781 27.736 15.6971 27.6438 15.6461 27.5349C15.5075 27.3628 15.33 27.2261 15.1284 27.1359C14.9267 27.0457 14.7065 27.0046 14.4859 27.016C14.4032 27.024 14.3197 27.0157 14.2402 26.9915C14.1607 26.9673 14.0867 26.9277 14.0226 26.8749C13.8929 26.7683 13.811 26.6145 13.7947 26.4475C13.7784 26.2804 13.8291 26.1138 13.9357 25.9841C14.0424 25.8545 14.1961 25.7725 14.3631 25.7562C15.2187 25.6719 16.3966 26.1528 16.7923 26.9982C16.8374 27.0947 16.8575 27.2009 16.8507 27.3072C16.8439 27.4134 16.8103 27.5162 16.7532 27.6061C16.6961 27.6959 16.6172 27.7699 16.5239 27.8212C16.4306 27.8724 16.3259 27.8993 16.2194 27.8994Z" fill="#FF6C73"/>
<path id="Vector_3" d="M45.0562 53.2026H8.94373C8.79859 53.2022 8.65597 53.1646 8.52957 53.0933C8.40317 53.0219 8.29723 52.9193 8.22192 52.7952C8.1466 52.6712 8.10444 52.5298 8.09949 52.3848C8.09454 52.2397 8.12696 52.0958 8.19363 51.9669C8.7646 50.8412 9.53046 49.8255 10.4557 48.9669C12.4428 47.1233 17.4884 46.2037 20.066 44.8958C20.7896 44.5443 21.418 44.0239 21.8982 43.3785C22.3784 42.7331 22.6963 41.9816 22.8251 41.1876C22.9596 40.255 23.0399 39.3155 23.0656 38.3737H30.9361C30.9617 39.3155 31.042 40.255 31.1765 41.1876C31.3053 41.9816 31.6232 42.7331 32.1034 43.3785C32.5836 44.0239 33.212 44.5443 33.9356 44.8958C36.5133 46.2037 41.5589 47.1233 43.5459 48.9669C44.4712 49.8255 45.237 50.8412 45.808 51.9669C45.8747 52.0959 45.9072 52.24 45.9021 52.3852C45.8971 52.5304 45.8548 52.6718 45.7793 52.7959C45.7038 52.9201 45.5976 53.0227 45.471 53.0939C45.3443 53.1651 45.2015 53.2025 45.0562 53.2026Z" fill="#FFA39C"/>
<path id="Vector_4" d="M31.1766 41.1876C30.0637 41.8271 28.8582 42.2896 27.6033 42.5587C27.206 42.6473 26.794 42.6473 26.3967 42.5587C25.1417 42.2896 23.9362 41.8271 22.8234 41.1876C22.958 40.255 23.0383 39.3155 23.0639 38.3737H30.9361C30.9617 39.3155 31.042 40.255 31.1766 41.1876Z" fill="#FF6C73"/>
<path id="Vector_5" d="M15.5672 23.5439C15.5608 29.1696 17.0437 33.6715 19.5931 36.142C21.1675 37.6675 23.1706 39.3162 26.398 40.0279C26.7951 40.1156 27.2066 40.1156 27.6037 40.0279C30.831 39.3162 32.8349 37.6675 34.4085 36.142C36.9562 33.6715 38.44 29.1696 38.4328 23.5439C37.0334 2.00384 16.6176 3.37494 15.5672 23.5439Z" fill="#FFB3A9"/>
<g id="Group_2">
<path id="Vector_6" d="M42.8118 41.0551C44.2727 41.0551 45.457 39.8708 45.457 38.4099C45.457 36.949 44.2727 35.7648 42.8118 35.7648C41.351 35.7648 40.1667 36.949 40.1667 38.4099C40.1667 39.8708 41.351 41.0551 42.8118 41.0551Z" fill="#FFE1E1"/>
<path id="Vector_7" d="M4.41322 29.8952C5.73384 29.8952 6.80441 28.8246 6.80441 27.504C6.80441 26.1834 5.73384 25.1128 4.41322 25.1128C3.0926 25.1128 2.02203 26.1834 2.02203 27.504C2.02203 28.8246 3.0926 29.8952 4.41322 29.8952Z" fill="#FFE1E1"/>
<path id="Vector_8" d="M49.7496 30.5053C50.652 30.5053 51.3835 29.7737 51.3835 28.8713C51.3835 27.969 50.652 27.2374 49.7496 27.2374C48.8472 27.2374 48.1157 27.969 48.1157 28.8713C48.1157 29.7737 48.8472 30.5053 49.7496 30.5053Z" fill="#FFE1E1"/>
<path id="Vector_9" d="M5.00257 20.0685C5.90496 20.0685 6.6365 19.337 6.6365 18.4346C6.6365 17.5322 5.90496 16.8007 5.00257 16.8007C4.10018 16.8007 3.36865 17.5322 3.36865 18.4346C3.36865 19.337 4.10018 20.0685 5.00257 20.0685Z" fill="#FFE1E1"/>
<path id="Vector_10" d="M10.8498 41.6199C11.5604 41.6199 12.1365 41.0439 12.1365 40.3332C12.1365 39.6226 11.5604 39.0465 10.8498 39.0465C10.1391 39.0465 9.56305 39.6226 9.56305 40.3332C9.56305 41.0439 10.1391 41.6199 10.8498 41.6199Z" fill="#FFE1E1"/>
<path id="Vector_11" d="M49.2362 16.6374C50.1087 16.6374 50.8161 15.93 50.8161 15.0575C50.8161 14.1849 50.1087 13.4775 49.2362 13.4775C48.3636 13.4775 47.6562 14.1849 47.6562 15.0575C47.6562 15.93 48.3636 16.6374 49.2362 16.6374Z" fill="#FFE1E1"/>
</g>
<path id="Vector_12" d="M27 29.7114C26.4233 29.6921 25.8736 29.463 25.4538 29.0672C25.3495 28.9616 25.2887 28.8206 25.2836 28.6723C25.2786 28.5239 25.3295 28.3791 25.4263 28.2667C25.5232 28.1542 25.6588 28.0823 25.8063 28.0653C25.9537 28.0483 26.1021 28.0874 26.222 28.1749C26.3184 28.2868 26.4378 28.3766 26.5721 28.4381C26.7063 28.4996 26.8523 28.5315 27 28.5315C27.1477 28.5315 27.2936 28.4996 27.4279 28.4381C27.5621 28.3766 27.6815 28.2868 27.7779 28.1749C27.8978 28.0874 28.0462 28.0483 28.1937 28.0653C28.3411 28.0823 28.4768 28.1542 28.5736 28.2667C28.6704 28.3791 28.7214 28.5239 28.7163 28.6723C28.7112 28.8206 28.6505 28.9616 28.5461 29.0672C28.1264 29.463 27.5766 29.6921 27 29.7114ZM30.5728 32.2705C30.55 32.1522 30.4811 32.0479 30.3813 31.9804C30.2816 31.9129 30.1591 31.8878 30.0408 31.9106H30.0333C29.5642 32.005 29.0823 32.0175 28.609 31.9477C28.4909 31.9304 28.3757 31.9076 28.2378 31.8811C28.0407 31.8353 27.8371 31.8255 27.6366 31.852C27.4268 31.8889 27.2274 31.9704 27.0519 32.0912C27.0362 32.1005 27.0182 32.1054 27 32.1054C26.9817 32.1054 26.9638 32.1005 26.9481 32.0912C26.7726 31.9704 26.5732 31.8889 26.3634 31.852C26.1629 31.8255 25.9592 31.8353 25.7622 31.8811C25.6247 31.9076 25.5091 31.9304 25.3909 31.9477C24.9177 32.0175 24.436 32.005 23.9671 31.9106H23.9591C23.8491 31.889 23.7349 31.9088 23.6386 31.9663C23.5424 32.0239 23.4708 32.115 23.4377 32.2222C23.4047 32.3293 23.4124 32.4449 23.4595 32.5467C23.5067 32.6485 23.5898 32.7292 23.6929 32.7733C24.2577 33.0188 24.8695 33.1372 25.485 33.1201C25.6377 33.1159 25.7921 33.1032 25.9233 33.0931C26.0465 33.0821 26.0993 33.1024 26.2824 33.21C26.4846 33.3331 26.716 33.4 26.9527 33.404H27.0472C27.2839 33.4 27.5153 33.3331 27.7176 33.21C27.9007 33.1024 27.9534 33.0834 28.0766 33.0931C28.2078 33.1032 28.3622 33.1159 28.5149 33.1201C29.1305 33.1372 29.7423 33.0188 30.3071 32.7733C30.402 32.7323 30.48 32.6601 30.5284 32.5686C30.5767 32.4772 30.5924 32.372 30.5728 32.2705ZM27 35.4797C26.6761 35.4778 26.3568 35.4024 26.0664 35.259C25.9233 35.1816 25.8155 35.0521 25.7654 34.8973C25.7153 34.7426 25.7267 34.5745 25.7973 34.4279C25.8679 34.2813 25.9922 34.1676 26.1444 34.1102C26.2966 34.0529 26.4651 34.0564 26.6148 34.12C26.7332 34.183 26.8654 34.216 26.9996 34.216C27.1337 34.216 27.2659 34.183 27.3843 34.12C27.4596 34.0792 27.5424 34.0542 27.6276 34.0464C27.7129 34.0386 27.7989 34.0481 27.8803 34.0745C27.9618 34.1009 28.037 34.1435 28.1015 34.1998C28.166 34.2561 28.2184 34.3249 28.2556 34.402C28.2927 34.4792 28.3138 34.563 28.3176 34.6486C28.3214 34.7341 28.3078 34.8195 28.2776 34.8996C28.2474 34.9797 28.2013 35.0529 28.142 35.1147C28.0827 35.1765 28.0115 35.2256 27.9327 35.259C27.6425 35.4021 27.3236 35.4776 27 35.4797Z" fill="#FF6C73"/>
<path id="Vector_13" d="M30.2792 19.6906C30.8351 19.4421 31.4291 19.2898 32.0359 19.24C32.6195 19.175 33.2089 19.1813 33.7909 19.259C34.3673 19.3366 34.9385 19.4493 35.5012 19.5965C36.0769 19.735 36.6325 19.9466 37.1545 20.2259C37.2157 20.2601 37.262 20.3158 37.2844 20.3822C37.3068 20.4486 37.3038 20.5209 37.2759 20.5852C37.248 20.6495 37.1972 20.7011 37.1334 20.7301C37.0696 20.759 36.9973 20.7632 36.9305 20.7419L36.9124 20.7364C36.4019 20.5867 35.8774 20.4896 35.3472 20.4466C34.8085 20.3984 34.2674 20.3822 33.7268 20.398L32.1291 20.436C31.6154 20.4607 31.1037 20.5171 30.5969 20.6048L30.575 20.609C30.4586 20.6308 30.3382 20.6093 30.2365 20.5487C30.1348 20.4881 30.0586 20.3924 30.0224 20.2797C29.9862 20.167 29.9923 20.0449 30.0397 19.9363C30.087 19.8278 30.1724 19.7403 30.2796 19.6901L30.2792 19.6906ZM30.8859 24.3287C31.2189 24.4362 31.5709 24.4716 31.9186 24.4324C32.3041 24.3975 32.6847 24.3205 33.0535 24.2029C33.2425 24.1434 33.4332 24.0819 33.6158 24.0059C33.7103 23.9734 34.1984 23.7574 34.1984 23.7574C34.4668 23.6388 34.7587 23.5831 35.0519 23.5946C35.2149 23.6017 35.3737 23.6482 35.5147 23.7303C35.6557 23.8123 35.7747 23.9273 35.8615 24.0654C35.8861 24.1108 35.8975 24.1623 35.8943 24.2139C35.8912 24.2655 35.8737 24.3151 35.8438 24.3573C35.8139 24.3994 35.7728 24.4324 35.7252 24.4524C35.6775 24.4724 35.6252 24.4786 35.5742 24.4704L35.5071 24.4594C35.3675 24.437 35.2243 24.4548 35.0945 24.5109C34.9505 24.5659 34.813 24.6367 34.6844 24.7218C34.6452 24.7493 34.1946 25.0201 34.0845 25.0724C33.8641 25.1765 33.6369 25.2657 33.4045 25.3395C32.9292 25.4911 32.4322 25.5632 31.9334 25.5529C31.3872 25.5524 30.8569 25.3692 30.4269 25.0323C30.3523 24.9688 30.3022 24.8812 30.2851 24.7847C30.2681 24.6882 30.2852 24.5888 30.3334 24.5035C30.3817 24.4183 30.4581 24.3524 30.5496 24.3174C30.6411 24.2823 30.7419 24.2802 30.8348 24.3114L30.8859 24.3287ZM23.5735 25.0319C23.1434 25.3688 22.6129 25.5521 22.0666 25.5525C21.5678 25.5628 21.0708 25.4906 20.5955 25.339C20.3631 25.2653 20.1359 25.1761 19.9154 25.072C19.8053 25.0197 19.6982 24.9577 19.5906 24.8982C19.5906 24.8982 19.3548 24.7488 19.3155 24.7214C19.187 24.6363 19.0495 24.5655 18.9055 24.5105C18.7756 24.4544 18.6325 24.4365 18.4929 24.459L18.4262 24.4687C18.3755 24.4765 18.3237 24.47 18.2764 24.45C18.2292 24.4299 18.1885 24.3971 18.1589 24.3553C18.1292 24.3134 18.1118 24.2641 18.1086 24.2129C18.1054 24.1617 18.1165 24.1107 18.1406 24.0654C18.2274 23.9273 18.3464 23.8123 18.4874 23.7303C18.6284 23.6482 18.7872 23.6017 18.9502 23.5946C19.2434 23.5831 19.5353 23.6388 19.8037 23.7574L19.98 23.8342C19.98 23.8342 20.2918 23.9734 20.3863 24.0059C20.5694 24.0819 20.7596 24.1434 20.9486 24.2029C21.3174 24.3205 21.6979 24.3975 22.0835 24.4324C22.4312 24.4716 22.7832 24.4362 23.1162 24.3287L23.1664 24.3114C23.2593 24.2798 23.3603 24.2817 23.452 24.3166C23.5437 24.3515 23.6203 24.4172 23.6688 24.5025C23.7172 24.5878 23.7344 24.6874 23.7174 24.784C23.7004 24.8806 23.6503 24.9683 23.5756 25.0319H23.5735ZM23.4031 20.6052C22.8963 20.5175 22.3846 20.4611 21.8708 20.4364L20.2732 20.3985C19.7326 20.3826 19.1915 20.3988 18.6528 20.447C18.1225 20.49 17.5981 20.5871 17.0876 20.7368L17.0699 20.7423C17.0034 20.7628 16.9316 20.7581 16.8683 20.729C16.805 20.6999 16.7547 20.6485 16.7269 20.5847C16.6992 20.5208 16.6959 20.449 16.7178 20.3829C16.7396 20.3168 16.7851 20.261 16.8455 20.2263C17.3675 19.947 17.9231 19.7354 18.4988 19.5969C19.0615 19.4497 19.6326 19.337 20.2091 19.2594C20.7911 19.1818 21.3805 19.1754 21.9641 19.2404C22.5709 19.2902 23.1649 19.4425 23.7208 19.691C23.8288 19.7405 23.915 19.828 23.963 19.9368C24.0109 20.0456 24.0173 20.1683 23.9809 20.2815C23.9445 20.3947 23.8679 20.4906 23.7655 20.5511C23.6632 20.6116 23.5422 20.6325 23.4254 20.6098L23.4031 20.6052Z" fill="#9E5969"/>
<path id="Vector_14" d="M42.5136 21.6189C43.4915 18.384 43.0481 11.3931 39.5757 6.59175C37.149 3.23658 31.034 -0.55397 27 1.42505C21.7814 3.5648 23.487 7.39247 27 11.6606C35.875 21.8953 39.963 25.242 41.2741 26.1874C41.4263 26.2979 41.6112 26.3542 41.7991 26.3471C41.9871 26.3401 42.1672 26.2702 42.3107 26.1486C43.5675 25.0741 43.0334 23.471 42.5136 21.6189Z" fill="#FFCFCF"/>
<path id="Vector_15" d="M42.514 22.2513C42.4046 22.2514 42.297 22.2232 42.2018 22.1694C42.1066 22.1156 42.0269 22.038 41.9706 21.9442C41.5517 21.2334 41.0555 20.5712 40.4911 19.9694C40.3758 19.8536 40.3097 19.6978 40.3067 19.5344C40.3036 19.371 40.3639 19.2128 40.4749 19.0929C40.5859 18.9729 40.739 18.9006 40.9021 18.891C41.0652 18.8814 41.2257 18.9352 41.35 19.0413C42.0015 19.7262 42.5741 20.4822 43.057 21.2949C43.1429 21.4389 43.1683 21.6111 43.1274 21.7737C43.0865 21.9364 42.9827 22.0761 42.8388 22.1623C42.7408 22.2212 42.6284 22.2519 42.514 22.2513ZM39.5761 15.0946C39.4828 15.0947 39.3906 15.0742 39.3061 15.0346C39.2216 14.9949 39.147 14.937 39.0875 14.8651C39.0352 14.8018 33.8031 8.53699 29.7017 8.53699C29.5338 8.53699 29.3729 8.47032 29.2542 8.35164C29.1355 8.23297 29.0688 8.07201 29.0688 7.90417C29.0688 7.73634 29.1355 7.57538 29.2542 7.45671C29.3729 7.33803 29.5338 7.27136 29.7017 7.27136C34.398 7.27136 39.8343 13.7838 40.0633 14.0606C40.1392 14.1531 40.1873 14.2653 40.202 14.3841C40.2167 14.5028 40.1974 14.6233 40.1464 14.7316C40.0954 14.8398 40.0147 14.9314 39.9138 14.9956C39.8128 15.0599 39.6957 15.0942 39.5761 15.0946Z" fill="#FFAEB2"/>
<path id="Vector_16" d="M26.1056 4.6043C26.036 3.27244 27 1.42505 27 1.42505C22.966 -0.55397 16.8509 3.23658 14.4243 6.59175C10.9519 11.3931 10.5085 18.384 11.4864 21.6189C11.0447 23.1934 10.592 24.5885 11.2392 25.6314C11.3335 25.7772 11.4572 25.9018 11.6023 25.9973C11.7475 26.0927 11.9108 26.1569 12.0821 26.1859C12.2534 26.2148 12.4288 26.2078 12.5972 26.1653C12.7656 26.1228 12.9234 26.0457 13.0604 25.9389C14.6635 24.7155 18.7764 21.1456 27 11.6606C29.1427 9.2774 26.209 6.59175 26.1056 4.6043Z" fill="#FFE1E1"/>
<path id="Vector_17" d="M11.486 22.2513C11.3741 22.2513 11.2642 22.2216 11.1675 22.1653C11.0708 22.1089 10.9908 22.028 10.9356 21.9306C10.8804 21.8333 10.852 21.723 10.8533 21.6112C10.8546 21.4993 10.8856 21.3897 10.943 21.2937C11.4259 20.481 11.9984 19.725 12.6499 19.04C12.7742 18.934 12.9348 18.8801 13.0979 18.8897C13.261 18.8994 13.4141 18.9717 13.5251 19.0916C13.636 19.2116 13.6963 19.3698 13.6933 19.5332C13.6903 19.6965 13.6242 19.8524 13.5089 19.9681C12.9446 20.5699 12.4484 21.232 12.0293 21.9425C11.9732 22.0366 11.8937 22.1146 11.7984 22.1687C11.7032 22.2228 11.5955 22.2513 11.486 22.2513ZM14.4239 15.0946C14.3039 15.0946 14.1863 15.0604 14.085 14.996C13.9836 14.9316 13.9027 14.8398 13.8516 14.7311C13.8005 14.6225 13.7814 14.5016 13.7965 14.3825C13.8115 14.2634 13.8601 14.151 13.9366 14.0585C14.1657 13.7818 19.602 7.26929 24.2983 7.26929C24.4661 7.26929 24.6271 7.33596 24.7458 7.45463C24.8644 7.57331 24.9311 7.73427 24.9311 7.9021C24.9311 8.06993 24.8644 8.23089 24.7458 8.34957C24.6271 8.46824 24.4661 8.53491 24.2983 8.53491C20.1914 8.53491 14.9647 14.8019 14.9124 14.863C14.8532 14.9353 14.7786 14.9936 14.6941 15.0336C14.6097 15.0737 14.5174 15.0945 14.4239 15.0946Z" fill="#FFCFCF"/>
</g>
</g>
</svg>
